<svg height="512" viewBox="0 0 60 60" width="512" xmlns="http://www.w3.org/2000/svg"><path id="Shape" d="m58.124 36.5c-.8639603-1.5931239-1.9781443-3.0371739-3.3-4.277-.0398845-.0315372-.0823698-.0596378-.127-.084-2.4094569-2.2116611-5.4526219-3.6108174-8.7-4v-21.139c0-3.82-5.082-7-7-7h-31.997c-3.86416566.00440864-6.99559136 3.13583434-7 7v15c0 1.1045695.8954305 2 2 2h10v13c0 1.1045695.8954305 2 2 2h14.811c-.5006137 1.5177431-.7702919 3.1021028-.8 4.7l-17.041-3.01c-.156227-2.0114775-1.78394263-3.5929055-3.79908916-3.6910539-2.01514652-.0981484-3.78884125 1.3176128-4.13980448 3.3043874-.35096324 1.9867746.83033289 3.9245342 2.75714583 4.522732 1.92681293.5981977 3.99782692-.3298507 4.83374781-2.1660655l17.478 3.081c.055.5.127.995.227 1.48l-17.7 3.124c-.83338261-1.8337635-2.90030014-2.7617841-4.82446367-2.166125s-3.10524722 2.5291564-2.75680829 4.5130428c.34843894 1.9838864 2.11768994 3.3992031 4.12966995 3.3035395s3.63896501-1.6724609 3.79760201-3.6804573l17.895-3.159c1.2953571 3.7584996 3.9311569 6.9073599 7.403 8.844h-13.771c-1.3807119 0-2.5-1.1192881-2.5-2.5s1.1192881-2.5 2.5-2.5h2.5c.5522847 0 1-.4477153 1-1s-.4477153-1-1-1h-2.5c-2.4852814 0-4.5 2.0147186-4.5 4.5s2.0147186 4.5 4.5 4.5h21.5c4.5052786-.0030369 8.7990594-1.9116261 11.82-5.254.0444365-.040783.0849475-.0856464.121-.134 1.3802457-1.5508368 2.4462991-3.3548749 3.139-5.312 1.49375-4.18929 1.1565931-8.8136745-.929-12.742-.008-.022-.018-.039-.027-.058zm-50.776 17.469c-1.08610247.1925924-2.12308369-.5305115-2.31779475-1.6162362-.19471106-1.0857246.52636837-2.1241147 1.61171107-2.3209436 1.0853427-.196829 2.12513759.5222232 2.32408368 1.6071798.0960351.5237294-.02073605 1.0641337-.32444281 1.5014865-.30370676.4373527-.76927466.7355454-1.29355719.8285135zm47.36-.969h-21.416c-.765817-.9140644-1.4117127-1.9222263-1.922-3h25.26c-.5102873 1.0777737-1.156183 2.0859356-1.922 3zm-16.731-21.619 11.623 11.619h-4.236l-10-10c.8089341-.6339412 1.6852147-1.1768797 2.613-1.619zm10.012-.794-3.989 3.989-3.989-3.989c2.601701-.7829776 5.376299-.7829776 7.978 0zm4.645 2.413-5.1 5.1-2.12-2.11 4.609-4.609c.9270905.4422488 1.8026945.9851837 2.611 1.619zm-18.75 1.346 8.652 8.654h-4.251l-6.243-6.242c.5249035-.8676752 1.1425277-1.6757504 1.842-2.41zm-2.806 4.274 4.378 4.38h-5.405c.1018759-1.5054873.4487687-2.9842571 1.027-4.378zm-.488 9.38c-.2896192-.977094-.4703827-1.9831993-.539-3h27.9c-.0686173 1.0168007-.2493808 2.022906-.539 3zm21.954-5 4.378-4.378c.5782313 1.3937429.9251241 2.8725127 1.027 4.378zm3.414-6.242-4.888 4.888-2.126-2.126 5.172-5.172c.6994723.7342496 1.3170965 1.5423248 1.842 2.41zm-14.33-8.558-3.728-1.874c-.5666942-.2827258-1.2333058-.2827258-1.8 0l-7.1 3.56-7.1-3.56c-.5649788-.2810457-1.2290212-.2810457-1.794 0l-6.106 3.055v-3.763l7-3.5 7.105 3.553c.5638101.2800314 1.2261899.2800314 1.79 0l7.105-3.553 7 3.5v2.382c-.7945375.0076431-1.5874003.074495-2.372.2zm-27.628-11.582 7-3.5 7.105 3.553c.5638101.2800314 1.2261899.2800314 1.79 0l7.105-3.553 7 3.5v6.764l-6.1-3.053c-.5638101-.2800314-1.2261899-.2800314-1.79 0l-7.11 3.553-7.1-3.553c-.5638101-.2800314-1.2261899-.2800314-1.79 0l-6.11 3.053zm30-2.236-6.1-3.053c-.5638101-.2800314-1.2261899-.2800314-1.79 0l-7.11 3.553-7.1-3.553c-.5638101-.2800314-1.2261899-.2800314-1.79 0l-6.11 3.053v-3.764l7-3.5 7.105 3.553c.5638101.2800314 1.2261899.2800314 1.79 0l7.105-3.553 7 3.5zm-5-12.382c.92.01 5 2.4 5 5v1.382l-6.1-3.053c-.5638101-.28003145-1.2261899-.28003145-1.79 0l-7.11 3.553-7.1-3.553c-.5638101-.28003145-1.2261899-.28003145-1.79 0l-6.11 3.053v-1.382c.0004407-1.88335904-.7609752-3.68680747-2.111-5zm-37 20v-15c0-2.76142375 2.23857625-5 5-5s5 2.23857625 5 5v15zm12 15v-5.383l7-3.5 7.1 3.56c.5653259.2810657 1.2296741.2810657 1.795 0l7.1-3.56 1.647.826c-1.9828914.6900363-3.803339 1.7791058-5.349 3.2-.0446302.0243622-.0871155.0524628-.127.084-1.4664883 1.3549666-2.664405 2.9742406-3.531 4.773zm-7.347 5.97c-1.08580897-.1910266-1.81225564-1.2247115-1.62412897-2.3110267.18812667-1.0863151 1.21986821-1.8155193 2.30668181-1.6302938 1.08681361.1852254 1.81877001 1.2150162 1.63644716 2.3023205l-.006.015v.017c-.19917932 1.0797598-1.2315961 1.7970507-2.313 1.607zm28.715 12.03h17.264c-5.0593786 4.0005755-12.2046214 4.0005755-17.264 0z"/></svg>