<?xml version="1.0"?>
<svg xmlns="http://www.w3.org/2000/svg" id="Outline" viewBox="0 0 64 64" width="512" height="512"><path d="M59.42822,19.9834l-6.82043-3.78967-1.74158-1.74158a3.00242,3.00242,0,0,0-3.1441-.6875l-.373-1.49317A2.99684,2.99684,0,0,0,44.43848,10H44V7.81573a3.00011,3.00011,0,1,0-2-.00006V10h-.43848a2.99664,2.99664,0,0,0-2.91064,2.27246l-.37293,1.49219a3.00215,3.00215,0,0,0-3.14416.6875l-1.74164,1.74164L26.57227,19.9834A5.00167,5.00167,0,0,0,24,24.35352V29h2V24.35352a3,3,0,0,1,1.54346-2.62207l6.02911-3.35L42,35.23633V55H33v2h7v5h2V57h2v5h2V57h7a3.00328,3.00328,0,0,0,3-3V52h3a3.00328,3.00328,0,0,0,3-3V24.35352A5.0022,5.0022,0,0,0,59.42822,19.9834ZM43,4a1,1,0,1,1-1,1A1.001,1.001,0,0,1,43,4Zm0,28.76367L37.03259,20.8288l1.51917,1.26593a2.01107,2.01107,0,0,0,1.28271.46289,1.82549,1.82549,0,0,0,.23047-.01367,2.0045,2.0045,0,0,0,1.36621-.78614l1.56873-2.09161,1.56848,2.09161a2.00659,2.00659,0,0,0,1.3667.78614,1.82549,1.82549,0,0,0,.23047.01367,2.01239,2.01239,0,0,0,1.2832-.46289l1.51843-1.26538Zm6.45215-16.89746,1.0664,1.06641-4.35009,3.626-1.73438-2.3125,3.75586-2.50488A1.00415,1.00415,0,0,1,49.45215,15.86621ZM41.56152,12h2.877a.99887.99887,0,0,1,.97021.75684l.52173,2.08764-2.93036,1.95343L40.0697,14.8443l.52161-2.08649A.99867.99867,0,0,1,41.56152,12Zm-5.01367,3.86621a1.0044,1.0044,0,0,1,1.26221-.125l3.75586,2.50488-1.73438,2.31153-4.35009-3.625ZM60,49a1.001,1.001,0,0,1-1,1H56V48h4Zm-4-3V27H54V54a1.001,1.001,0,0,1-1,1H44V35.23633l8.42743-16.85486,6.0296,3.35A3.00057,3.00057,0,0,1,60,24.35352V46Z"/><circle cx="39" cy="40" r="1"/><circle cx="39" cy="45" r="1"/><circle cx="39" cy="50" r="1"/><path d="M5,62H28a3.00328,3.00328,0,0,0,3-3V57a3.00328,3.00328,0,0,0-3-3H16V45h4.10107A5.01458,5.01458,0,0,0,24,48.89893V52h2V48.89893A5.00837,5.00837,0,0,0,30,44V35a3.00328,3.00328,0,0,0-3-3H23a3.00328,3.00328,0,0,0-3,3H14V31H12v4H8V31H6v4H5a3.00328,3.00328,0,0,0-3,3v4a3.00328,3.00328,0,0,0,3,3v9a3.00328,3.00328,0,0,0-3,3v2A3.00328,3.00328,0,0,0,5,62ZM23,34h4a1.001,1.001,0,0,1,1,1v9a3,3,0,0,1-6,0V35A1.001,1.001,0,0,1,23,34ZM4,42V38a1.001,1.001,0,0,1,1-1H20v6H5A1.001,1.001,0,0,1,4,42Zm3,3h7v9H7ZM4,57a1.001,1.001,0,0,1,1-1H28a1.001,1.001,0,0,1,1,1v2a1.001,1.001,0,0,1-1,1H5a1.001,1.001,0,0,1-1-1Z"/></svg>
